<?xml version="1.0" encoding="utf-8"?>
<svg viewBox="0 0 500 500" width="500" height="500" xmlns="http://www.w3.org/2000/svg">
  <path d="M 496.847 249.404 C 496.847 317.085 468.783 379.797 424.489 424.091 C 380.195 468.385 317.483 496.449 249.802 496.449 C 182.121 496.449 119.409 468.385 75.115 424.091 C 30.821 379.797 2.757 317.085 2.757 249.404 C 2.757 181.723 30.821 119.011 75.115 74.717 C 119.409 30.423 182.121 2.359 249.802 2.359 C 317.483 2.359 380.195 30.423 424.489 74.717 C 468.783 119.011 496.847 181.723 496.847 249.404 Z M 413.883 85.323 C 371.479 42.919 314.418 17.359 249.802 17.359 C 185.186 17.359 128.125 42.919 85.721 85.323 C 43.317 127.727 17.757 184.788 17.757 249.404 C 17.757 314.02 43.317 371.081 85.721 413.485 C 128.125 455.889 185.186 481.449 249.802 481.449 C 314.418 481.449 371.479 455.889 413.883 413.485 C 456.287 371.081 481.847 314.02 481.847 249.404 C 481.847 184.788 456.287 127.727 413.883 85.323 Z" style=""/>
  <path d="M 309.718 99.102 C 355.189 123.539 406.104 165.934 430.379 193.224 M 338.687 197.466 C 367.086 162.568 376.774 127.187 386.475 87.321 M 193.337 121.958 C 198.679 136.654 195.981 154.355 187.854 168.325 C 179.822 182.131 164.891 193.163 147.686 200.084 C 130.48 207.007 113.372 206.841 98.633 202.195 C 83.719 197.495 75.121 187.497 71.463 174.573 C 67.806 161.649 71.642 144.938 80.719 131.631 C 94.851 110.914 108.462 104.276 119.531 98.855 C 130.601 93.435 145.521 88.286 160.26 92.932 C 175.174 97.632 187.994 107.262 193.337 121.958 Z M 114.685 245.088 L 67.145 400 M 385.722 246.988 L 432.12 400 M 300 248.424 L 323.484 478.005 M 200 247.889 L 175.782 474.259 M 12.56 242.002 L 484.567 242.002" style="stroke-linecap: round; fill: none; stroke: rgb(0, 0, 0); stroke-width: 15px;"/>
</svg>